<svg xmlns="http://www.w3.org/2000/svg" width="40" height="40" viewBox="0 0 40 40" fill="none">
  <g clip-path="url(#clip0_1350_1101)">
    <path d="M16.6939 5.67595C17.8938 3.59772 20.8935 3.59776 22.0934 5.67603L30.0902 19.5269L38.087 33.3784C39.2869 35.4567 37.787 38.0545 35.3872 38.0545H19.3937H3.39947C0.999684 38.0545 -0.500205 35.4567 0.699653 33.3784L8.69649 19.5269L16.6939 5.67595Z" fill="white"/>
    <path fill-rule="evenodd" clip-rule="evenodd" d="M25.5704 32.787C32.0528 32.787 37.6776 28.7242 40.4781 26.2765C41.6064 25.2903 41.6064 23.6423 40.4781 22.6561C37.6776 20.2084 32.0528 16.1455 25.5704 16.1455C19.0879 16.1455 13.4631 20.2084 10.6627 22.6561C9.53432 23.6423 9.53432 25.2903 10.6627 26.2765C13.4631 28.7242 19.0879 32.787 25.5704 32.787ZM25.5704 30.2714C28.8446 30.2714 31.4989 27.6724 31.4989 24.4662C31.4989 21.2601 28.8446 18.6611 25.5704 18.6611C22.2962 18.6611 19.6419 21.2601 19.6419 24.4662C19.6419 27.6724 22.2962 30.2714 25.5704 30.2714Z" fill="#0D0B0D"/>
  </g>
  <defs>
    <clipPath id="clip0_1350_1101">
      <rect width="40" height="40" fill="white"/>
    </clipPath>
  </defs>
</svg>