<svg width="35" height="36" viewBox="0 0 35 36" fill="none" xmlns="http://www.w3.org/2000/svg">
<g id="Group 59">
<rect id="Rectangle 1522" y="0.548828" width="34.9922" height="34.9922" rx="5.49639" fill="white"/>
<g id="Group 28">
<path id="Vector" fill-rule="evenodd" clip-rule="evenodd" d="M17.5419 25.6237C23.4677 25.6237 28.6096 21.9097 31.1695 19.6722C32.201 18.7707 32.201 17.2642 31.1695 16.3627C28.6096 14.1251 23.4677 10.4111 17.5419 10.4111C11.6161 10.4111 6.47424 14.1251 3.91421 16.3627C2.88276 17.2642 2.88276 18.7707 3.91421 19.6722C6.47424 21.9097 11.6161 25.6237 17.5419 25.6237ZM17.5419 23.3241C20.535 23.3241 22.9613 20.9483 22.9613 18.0174C22.9613 15.0866 20.535 12.7107 17.5419 12.7107C14.5488 12.7107 12.1225 15.0866 12.1225 18.0174C12.1225 20.9483 14.5488 23.3241 17.5419 23.3241Z" fill="black"/>
<circle id="Ellipse 18" cx="17.4915" cy="18.0403" r="5.511" fill="white"/>
</g>
</g>
</svg>
