<svg width="52" height="52" viewBox="0 0 52 52" fill="none" xmlns="http://www.w3.org/2000/svg">
<rect width="52" height="52" rx="15.7075" fill="white"/>
<path fill-rule="evenodd" clip-rule="evenodd" d="M26.0696 37.2622C34.8756 37.2622 42.5167 31.743 46.3209 28.418C47.8537 27.0782 47.8537 24.8395 46.3209 23.4998C42.5167 20.1748 34.8756 14.6556 26.0696 14.6556C17.2636 14.6556 9.6226 20.1748 5.81829 23.4998C4.2855 24.8395 4.28551 27.0782 5.81829 28.418C9.6226 31.743 17.2636 37.2622 26.0696 37.2622ZM26.0696 33.8449C30.5175 33.8449 34.1232 30.3142 34.1232 25.9588C34.1232 21.6035 30.5175 18.0728 26.0696 18.0728C21.6218 18.0728 18.0161 21.6035 18.0161 25.9588C18.0161 30.3142 21.6218 33.8449 26.0696 33.8449Z" fill="black"/>
<circle cx="25.9937" cy="25.9934" r="8.18959" fill="white"/>
</svg>
