<svg width="211" height="211" viewBox="0 0 211 211" fill="none" xmlns="http://www.w3.org/2000/svg">
<path d="M178.691 118.553C178.218 117.956 177.961 117.216 177.964 116.454V94.5463C177.961 93.7845 178.218 93.0444 178.691 92.4471L188.796 79.7844C190.615 77.5085 191.704 74.7371 191.923 71.8322C192.141 68.9273 191.479 66.0241 190.021 63.5019L184.127 53.3017C182.673 50.7773 180.492 48.7501 177.868 47.4849C175.244 46.2197 172.299 45.7754 169.419 46.2101L153.406 48.6457C152.648 48.752 151.877 48.6054 151.212 48.2286L132.238 37.2749C131.57 36.8731 131.057 36.2564 130.785 35.5255L124.877 20.5079C123.82 17.7988 121.97 15.4714 119.569 13.8295C117.169 12.1876 114.329 11.3073 111.421 11.3036H99.6059C96.6976 11.3073 93.8579 12.1876 91.4574 13.8295C89.0569 15.4714 87.2071 17.7988 86.1492 20.5079L80.2149 35.5255C79.9321 36.2364 79.4208 36.8329 78.7616 37.2211L59.7473 48.2286C59.0824 48.6063 58.3111 48.753 57.5539 48.6457L41.5809 46.2101C38.7004 45.7754 35.7558 46.2197 33.1318 47.4849C30.5078 48.7501 28.3265 50.7773 26.8728 53.3017L20.9788 63.5019C19.5213 66.0241 18.8585 68.9273 19.0769 71.8322C19.2954 74.7371 20.385 77.5085 22.2033 79.7844L32.3093 92.4471C32.7822 93.0444 33.0384 93.7845 33.0359 94.5463V116.454C33.0384 117.216 32.7822 117.956 32.3093 118.553L22.2033 131.216C20.385 133.492 19.2954 136.263 19.0769 139.168C18.8585 142.073 19.5213 144.976 20.9788 147.498L26.8728 157.698C28.3265 160.223 30.5078 162.25 33.1318 163.515C35.7558 164.78 38.7004 165.225 41.5809 164.79L57.5943 162.354C58.3514 162.247 59.1228 162.394 59.7877 162.771L78.7616 173.725C79.4208 174.113 79.9321 174.71 80.2149 175.421L86.1223 190.492C87.1801 193.201 89.03 195.529 91.4305 197.171C93.831 198.812 96.6707 199.693 99.579 199.696H111.367C114.275 199.693 117.115 198.812 119.515 197.171C121.916 195.529 123.766 193.201 124.824 190.492L130.731 175.421C131.014 174.71 131.525 174.113 132.184 173.725L151.158 162.771C151.824 162.395 152.595 162.248 153.352 162.354L169.365 164.79C172.246 165.225 175.19 164.78 177.814 163.515C180.438 162.25 182.619 160.223 184.073 157.698L189.967 147.498C191.425 144.976 192.088 142.073 191.869 139.168C191.651 136.263 190.561 133.492 188.743 131.216L178.691 118.553ZM105.5 135.777C99.5116 135.777 93.6577 134.002 88.6787 130.675C83.6996 127.348 79.8188 122.619 77.5272 117.087C75.2356 111.554 74.636 105.466 75.8042 99.5932C76.9725 93.7199 79.8561 88.325 84.0905 84.0906C88.3249 79.8563 93.7198 76.9726 99.593 75.8044C105.466 74.6361 111.554 75.2357 117.087 77.5273C122.619 79.8189 127.348 83.6997 130.675 88.6788C134.002 93.6579 135.777 99.5117 135.777 105.5C135.777 113.53 132.587 121.231 126.909 126.909C121.231 132.588 113.53 135.777 105.5 135.777Z" fill="#212121" stroke="#212121" stroke-width="1.5"/>
</svg>
