<?xml version="1.0" encoding="utf-8"?>
<!-- Generator: Adobe Illustrator 27.0.0, SVG Export Plug-In . SVG Version: 6.00 Build 0)  -->
<svg version="1.1" id="Layer_1" xmlns="http://www.w3.org/2000/svg" xmlns:xlink="http://www.w3.org/1999/xlink" x="0px" y="0px"
	 viewBox="0 0 2000 2000" style="enable-background:new 0 0 2000 2000;" xml:space="preserve">
<style type="text/css">
	.st0{fill:#190037;}
	.st1{fill:#8473FF;}
	.st2{fill:#D29676;}
	.st3{fill:url(#SVGID_1_);}
	.st4{fill:url(#SVGID_00000106862463242210865800000018303528101026240686_);}
	.st5{fill:url(#SVGID_00000070103600922805885710000004970403374203655338_);}
	.st6{fill:url(#SVGID_00000133504989304286886650000007905815934625158279_);}
	.st7{fill:#A56B56;}
	.st8{opacity:0.0108;}
	.st9{fill:#231F20;}
	.st10{fill:#FBF9FC;}
	.st11{fill:#FFFFFF;stroke:#000000;stroke-width:0.7039;stroke-miterlimit:10;}
	.st12{fill:#735251;}
	.st13{fill:url(#SVGID_00000158028217927761836020000010260009023921622918_);}
	.st14{fill:#DFAA8C;}
	.st15{fill:#EAE1DF;}
	.st16{fill:#FC8673;}
	.st17{fill:#A40000;}
	.st18{fill:#F6EBEC;stroke:#A56B56;stroke-width:0.352;stroke-miterlimit:10;}
	.st19{fill:url(#SVGID_00000168117855580408804600000008151443218121791111_);}
	.st20{fill:#F5EBEC;stroke:#4F3131;stroke-width:0.4575;stroke-miterlimit:10;}
	.st21{fill:#442929;}
	.st22{fill:#F56059;}
	.st23{fill:#E92D21;}
	.st24{fill:#F5EBEC;}
</style>
<g>
	<g>
		<polygon class="st0" points="1780.35,619.25 1780.35,1380.75 1580.55,1380.75 1580.55,1580.55 1380.75,1580.55 1380.75,1780.35 
			619.25,1780.35 619.25,1580.55 419.45,1580.55 419.45,1380.75 219.65,1380.75 219.65,619.25 419.45,619.25 419.45,419.45 
			619.25,419.45 619.25,219.65 1380.75,219.65 1380.75,419.45 1580.55,419.45 1580.55,619.25 		"/>
		<path class="st1" d="M1799.2,400.6c0-110.36-89.44-199.8-199.8-199.8C1599.4,90.44,1509.96,1,1399.6,1H600.4
			C490.04,1,400.6,90.44,400.6,200.8c-110.36,0-199.8,89.44-199.8,199.8C90.44,400.6,1,490.04,1,600.4v799.2
			c0,110.36,89.44,199.8,199.8,199.8c0,110.36,89.44,199.8,199.8,199.8c0,110.36,89.44,199.8,199.8,199.8h799.2
			c110.36,0,199.8-89.44,199.8-199.8c110.36,0,199.8-89.44,199.8-199.8c110.36,0,199.8-89.44,199.8-199.8V600.4
			C1999,490.04,1909.56,400.6,1799.2,400.6z M1780.35,1380.75h-199.8v199.8h-199.8v199.8h-761.5v-199.8h-199.8v-199.8h-199.8v-761.5
			h199.8v-199.8h199.8v-199.8h761.5v199.8h199.8v199.8h199.8V1380.75z"/>
	</g>
	<g>
		<polygon class="st2" points="827.5,723.31 1119.27,843.01 1152.67,843.01 1191.64,744.19 1110.92,592.95 1132.32,400.72 
			1112.31,277.91 827.5,287.65 678.04,350.28 668.3,504.78 590.35,615.44 608.45,798.47 742.48,801.25 		"/>
		<g>
			
				<radialGradient id="SVGID_1_" cx="956.764" cy="657.7354" r="91.6602" fx="1048.3475" fy="661.4848" gradientTransform="matrix(1 0 0 0.7766 0 146.9681)" gradientUnits="userSpaceOnUse">
				<stop  offset="0.0585" style="stop-color:#442929"/>
				<stop  offset="0.7908" style="stop-color:#D29676"/>
			</radialGradient>
			<path class="st3" d="M1032.97,602.24H840.89v104.73h144.76C985.65,706.97,955.03,611.53,1032.97,602.24z"/>
		</g>
		
			<linearGradient id="SVGID_00000174560194357870684900000004307279612343154050_" gradientUnits="userSpaceOnUse" x1="5.7652" y1="1433.5315" x2="1994.2347" y2="1433.5315">
			<stop  offset="0" style="stop-color:#928585"/>
			<stop  offset="0.486" style="stop-color:#C9C7C9"/>
			<stop  offset="1" style="stop-color:#A09397"/>
		</linearGradient>
		<path style="fill:url(#SVGID_00000174560194357870684900000004307279612343154050_);" d="M1570.23,1895.27l116.92,103
			c0,0-512.21,33.41-907.5-350.75c0,0-361.89,261.67-682.02,119.7l339.62-97.43l77.95-320.13c0,0-122.49,111.35-509.43,47.32
			L479,1165.92l-64.03-72.38c0,0-141.28,107.87-263.76,107.87l375.11-333.35l918.64,211.57l94.65,5.57l322.92,64.03
			c0,0-86.3,75.16-192.08,58.46l36.19,192.08l287.6,155.89c0,0-254.19,103-424-19.49V1895.27z"/>
		<path class="st7" d="M1119.27,396.22l137.1,47.32l16.01,61.24c0,0,11.77,46.34,1.02,78.84c0,0,90.85,50.6,49.09,132.72
			L1220.22,862.5h-49.45l13.31-104.39l-32.79-128.75l-32.01-156.51V396.22z"/>
		<g>
			<g class="st8">
				<path class="st9" d="M838.58,425.4c0,0-36.01,20.63-58.28,70.74c-9.65,21.71-6.41,45.5-4.77,56.02
					c1.71,10.96-3.89,21.83-14.16,26.01c-30.4,12.38-79.54,45.79-79.54,132.31c0,125.27,89.08,108.57,89.08,108.57
					s36.19-108.57,164.24-108.57s130.84,181.93,270.02,180.94c115.87-0.82,65.31-118.38,179.44-118.9
					c95.45-0.44,69.01,155.09,69.01,155.09s49.41,114.13,205.3,197.65c155.89,83.51,261.67,89.08,261.67,89.08
					s-158.67,64.03-264.46-41.76c0,0,189.3,233.84,231.05,309s165.11,139.19,165.11,139.19s-307.08,22.27-485.24-278.38
					c0,0,116.92,250.54,122.49,414.78s38.97,289.51,55.68,306.21c0,0-595.72-47.32-932.56-704.29c0,0-100.22,570.67-656.97,473.24
					c0,0,228.27-75.16,359.1-514.99c0,0-236.62,169.81-450.97,144.76c0,0,281.16-144.76,378.59-403.64
					c0,0-152.41,191.38-233.14,208.09c0,0,263.76-235.92,327.79-494.81s117.32-245.95,117.32-245.95S741.15,442.1,838.58,425.4z"/>
			</g>
			<g>
				<path class="st10" d="M780.52,360.27c0,0-36.01,20.63-58.28,70.74c-9.65,21.71-6.41,45.5-4.77,56.02
					c1.71,10.96-3.89,21.83-14.16,26.01c-30.4,12.38-79.54,45.79-79.54,132.31c0,125.27,89.08,108.57,89.08,108.57
					s36.19-108.57,164.24-108.57s130.84,181.93,270.02,180.94c115.87-0.82,65.31-118.38,179.44-118.9
					c95.45-0.44,69.01,155.09,69.01,155.09s49.41,114.13,205.3,197.65s261.67,89.08,261.67,89.08s-158.67,64.03-264.46-41.76
					c0,0,189.3,233.84,231.05,309c41.76,75.16,165.11,139.19,165.11,139.19s-307.08,22.27-485.24-278.38
					c0,0,116.92,250.54,122.49,414.78s38.97,289.51,55.68,306.21c0,0-595.72-47.32-932.56-704.29c0,0-100.22,570.67-656.97,473.24
					c0,0,228.27-75.16,359.1-514.99c0,0-236.62,169.81-450.97,144.76c0,0,281.16-144.76,378.59-403.64
					c0,0-152.41,191.38-233.14,208.09c0,0,263.76-235.92,327.79-494.81s117.32-245.95,117.32-245.95S683.08,376.97,780.52,360.27z"
					/>
			</g>
		</g>
		<path class="st12" d="M840.89,848.58c0,0,14.06-60.5,58.46-64.03c43.84-3.48,64.03,32.01,64.03,32.01s-32.71-25.05-51.5-12.53
			c-9.42,6.28-10.44,22.97,14.61,64.03c25.05,41.06,84.9,75.86,154.5,82.82c69.59,6.96,126.66-25.05,126.66-25.05
			s-88.39,53.59-174.68,29.23C983.18,941,919.53,904.95,884.74,823.52c0,0-4.57-9.47-13.92-9.05
			C855.51,815.17,840.89,848.58,840.89,848.58z"/>
		<path class="st2" d="M515.19,763.67c0,0,107.17-143.36,75.16-270.02c0,0-90.47-18.09-116.92,89.08S515.19,763.67,515.19,763.67z"
			/>
		<g>
			<path class="st7" d="M543.03,559.07c7.62,6.65,10.1,17.36,11.06,27.05c1.62,22.45-5.03,44.64-13.15,65.32
				c-2.72,6.93-5.85,13.69-9.1,20.38c2.8-6.68,5.8-13.95,8.27-20.7c7.5-20.76,14.07-42.62,12.9-64.91
				C552.3,576.58,550.15,566.05,543.03,559.07L543.03,559.07z"/>
		</g>
		
			<linearGradient id="SVGID_00000057870825526986916250000007913611272361699971_" gradientUnits="userSpaceOnUse" x1="1142.9283" y1="195.7867" x2="1712.2058" y2="195.7867">
			<stop  offset="0" style="stop-color:#793715"/>
			<stop  offset="1" style="stop-color:#C16001"/>
		</linearGradient>
		<polygon style="fill:url(#SVGID_00000057870825526986916250000007913611272361699971_);" points="1586.06,307.99 1216.7,375.34 
			1142.93,291.83 1600.86,31.55 1678.8,16.23 1712.21,116.45 1651.63,254.94 		"/>
		<path class="st14" d="M1094.98,502.06c1.12,60.82,10.55,179.32,64.42,233.04c4.94,4.93,6.57,12.26,3.75,18.65l-31.72,71.74
			l53.12,0c7.74,0,14.76-4.52,17.93-11.58c8.93-19.91,26.27-50.22,25.17-64.15c-0.56-7.04-126.46-155.89-45.73-285.33l45.73-27.84
			l12.73-32.01c0,0-46.69-68.2-72.76-76.55s-99.84-12.53-99.84-12.53l-43.5,59.85l45.76,57.38
			C1085.77,452.46,1094.51,476.82,1094.98,502.06z"/>
		<path class="st15" d="M800.53,464.42c0,0,79.34-48.72,135.01-43.15c55.68,5.57,97.43,1.9,105.78-0.44
			c8.35-2.34,45.93-76.11,45.93-76.11s-133.49,2.6-173.98,9.74C889.61,358.64,832.54,355.85,800.53,464.42z"/>
		<path class="st15" d="M1181.9,464.42c0,0,40.36-32.01,90.47,40.36c0,0,9.74-87.69-32.01-100.22
			C1198.6,392.04,1181.9,464.42,1181.9,464.42z"/>
		<path class="st16" d="M918.9,134.54c0,0-153.84-9.83-258.95,120.4c-106.16,131.53-84.85,217.91-84.85,217.91l169.76-97.51
			L918.9,134.54z"/>
		<path class="st17" d="M1095.31,235.5c-24.83-55.4-72.31-100.95-161.3-100.95c-227.01,0-189.16,240.79-189.16,240.79L1095.31,235.5
			z"/>
		<path class="st18" d="M828.36,528.45c0,0,135.88,70.99,171.64,64.03c35.75-6.96,49.67-68.2,34.36-87.69
			c-15.31-19.49-101.61-20.4-130.84-12.29C874.3,500.61,820.01,506.18,828.36,528.45z"/>
		
			<radialGradient id="SVGID_00000158750900887660655030000004016943686536900238_" cx="918.8167" cy="535.6554" r="58.1706" gradientTransform="matrix(1 0 0 1 0 -3.372288e-04)" gradientUnits="userSpaceOnUse">
			<stop  offset="0" style="stop-color:#734242"/>
			<stop  offset="1" style="stop-color:#442929"/>
		</radialGradient>
		<path style="fill:url(#SVGID_00000158750900887660655030000004016943686536900238_);" d="M903.53,492.5
			c-13.45,3.73-32.18,6.93-47.69,11.46c-2.45,6.95-3.84,14.38-3.84,22.17c0,5.19,0.65,10.22,1.77,15.07
			c25.59,12.51,65.88,31.26,98.98,42.44c19.67-11.63,32.91-33,32.91-57.51c0-14.06-4.36-27.08-11.77-37.84
			C946.82,486.65,918.09,488.45,903.53,492.5z"/>
		<path class="st20" d="M1193.04,547.93c0,0-27.84,55.68,14.61,54.28c42.45-1.39,66.69-5.54,65.71-27.13
			c-0.99-21.59,5.97-50.82-27.43-50.82S1193.04,547.93,1193.04,547.93z"/>
		<path class="st21" d="M1256.37,558.72c0-13.4-5.45-25.52-14.26-34.28c-31.04,1.71-49.07,23.5-49.07,23.5s-27.84,55.67,14.61,54.28
			c8.86-0.29,16.88-0.72,24.09-1.38C1246.43,592.53,1256.37,576.8,1256.37,558.72z"/>
		<path class="st22" d="M768.51,375.34c0,0,69.77-33.5,150.38-30.62s320.07,15.31,361.83-8.35
			c41.76-23.66,304.82-317.35,367.46-306.21c62.63,11.14,78.64,160.07-50.8,264.46c0,0-38.28,37.58,25.75-12.53
			c64.03-50.11,112.74-157.89,93.26-228.27c-19.49-70.38-91.86-50.11-91.86-50.11L744.85,375.34H768.51z"/>
		<path class="st23" d="M1256.37,323.84c-48.72,20.88-352.84-8.35-434.78,20.88c-5.8,2.07-11.42,3.82-16.88,5.33l-59.86,25.29h23.66
			c0,0,69.77-33.5,150.38-30.62c80.61,2.87,320.07,15.31,361.83-8.35c41.76-23.66,304.82-317.35,367.46-306.21
			c62.63,11.13,78.64,160.07-50.8,264.46c0,0-38.28,37.58,25.75-12.53c64.03-50.11,112.74-157.89,93.26-228.27
			c-12.67-45.75-47.68-53.19-70.64-52.79c-7.33,0.86-14.44,1.75-21.23,2.68l-49.66,20.98
			C1465.27,93.35,1302.45,304.09,1256.37,323.84z"/>
		<circle class="st24" cx="974.55" cy="514.87" r="25.45"/>
		<circle class="st24" cx="923.59" cy="529.13" r="15.11"/>
		<ellipse class="st24" cx="1253.07" cy="549.02" rx="17.45" ry="18.96"/>
		<ellipse class="st24" cx="1225.27" cy="558.65" rx="10.37" ry="11.26"/>
	</g>
</g>
</svg>
