<svg width="2000" height="2000" viewBox="0 0 2000 2000" fill="none" xmlns="http://www.w3.org/2000/svg">
<rect width="2000" height="2000" fill="#5294FF"/>
<path fill-rule="evenodd" clip-rule="evenodd" d="M733.506 717.792H1265.98C1296.26 717.792 1313.75 752.148 1295.95 776.638L1042.54 1125.13C1024.72 1149.62 1042.22 1183.98 1072.5 1183.98H1295.82C1307.67 1183.98 1318.81 1178.3 1325.78 1168.71L1576.4 824.061C1585.85 811.061 1585.85 793.468 1576.4 780.469L1356.68 478.326C1349.71 468.729 1338.57 463.055 1326.72 463.055H672.766C660.908 463.055 649.779 468.729 642.806 478.326L423.083 780.469C413.639 793.468 413.639 811.069 423.083 824.061L969.772 1575.88C984.563 1596.22 1014.92 1596.22 1029.71 1575.88L1141.36 1422.33C1150.81 1409.33 1150.81 1391.73 1141.36 1378.73L703.547 776.638C685.739 752.148 703.228 717.792 733.506 717.792Z" fill="white"/>
</svg>
