<?xml version="1.0" encoding="UTF-8"?>
<svg xmlns="http://www.w3.org/2000/svg" xmlns:xlink="http://www.w3.org/1999/xlink" width="256px" height="256px"
    viewBox="0 0 256 256" version="1.1">
    <defs>
        <linearGradient id="linear0" gradientUnits="userSpaceOnUse" x1="531.429" y1="557.143" x2="177.857" y2="527.143"
            gradientTransform="matrix(0.355556,0,0,0.355556,0,0)">
            <stop offset="0" style="stop-color:rgb(8.627451%,64.705882%,64.705882%);stop-opacity:1;" />
            <stop offset="1" style="stop-color:rgb(24.705882%,77.647059%,77.647059%);stop-opacity:1;" />
        </linearGradient>
    </defs>
    <g id="surface1">
        <path style=" stroke:none;fill-rule:nonzero;fill:url(#linear0);"
            d="M 202.667969 128 C 202.667969 169.238281 169.238281 202.667969 128 202.667969 C 86.761719 202.667969 53.332031 169.238281 53.332031 128 C 53.332031 86.761719 86.761719 53.332031 128 53.332031 C 169.238281 53.332031 202.667969 86.761719 202.667969 128 Z M 202.667969 128 " />
        <path style=" stroke:none;fill-rule:evenodd;fill:rgb(100%,100%,100%);fill-opacity:1;"
            d="M 107.933594 102.398438 L 148.898438 102.398438 C 149.875 102.398438 150.78125 102.921875 151.265625 103.769531 L 163.203125 124.515625 C 163.820312 125.59375 163.636719 126.949219 162.753906 127.824219 L 129.902344 160.289062 C 128.839844 161.34375 127.128906 161.34375 126.0625 160.289062 L 93.257812 127.867188 C 92.351562 126.972656 92.183594 125.578125 92.847656 124.496094 L 105.605469 103.703125 C 106.101562 102.894531 106.984375 102.398438 107.933594 102.398438 Z M 143.609375 111.664062 L 143.609375 117.484375 L 131.941406 117.484375 L 131.941406 121.519531 C 140.136719 121.953125 146.285156 123.722656 146.332031 125.847656 L 146.332031 130.273438 C 146.285156 132.394531 140.136719 134.167969 131.941406 134.597656 L 131.941406 144.503906 L 124.191406 144.503906 L 124.191406 134.597656 C 115.996094 134.167969 109.847656 132.394531 109.800781 130.273438 L 109.800781 125.847656 C 109.847656 123.722656 115.996094 121.953125 124.191406 121.519531 L 124.191406 117.484375 L 112.523438 117.484375 L 112.523438 111.664062 Z M 128.066406 131.558594 C 136.8125 131.558594 144.121094 130.058594 145.914062 128.058594 C 144.394531 126.363281 138.90625 125.027344 131.941406 124.660156 L 131.941406 128.886719 C 130.691406 128.953125 129.394531 128.988281 128.066406 128.988281 C 126.738281 128.988281 125.441406 128.953125 124.191406 128.886719 L 124.191406 124.660156 C 117.226562 125.027344 111.738281 126.363281 110.21875 128.058594 C 112.007812 130.058594 119.320312 131.558594 128.066406 131.558594 Z M 128.066406 131.558594 " />
    </g>
</svg>