<svg xmlns="http://www.w3.org/2000/svg" viewBox="0 0 256 256">
    <defs>
        <style>
            .cls-1,
            .cls-2 {
                fill: #000000;
            }

            .cls-2 {
                fill-rule: evenodd;
            }

            .cls-3 {
                fill: #000000;
            }
        </style>
    </defs>
    <g id="Layer_3" data-name="Layer 3">
        <path id="Fill-14" class="cls-2"
            d="M145.79,113.6c0,11.54-18,10.14-23.71,10.14V103.41c5.72,0,23.71-1.81,23.71,10.19m4.7,31.56c0,12.61-21.56,11.17-28.43,11.17V134c6.87,0,28.43-2,28.43,11.21m14.2-36.11C163.54,97,153.18,93,140.07,91.74V75.15H130V91.41c-2.67,0-5.39,0-8.1.1V75.15H111.78V91.84H91.25V102.7s7.48-.13,7.37,0a5.23,5.23,0,0,1,5.75,4.46v45.71a3.58,3.58,0,0,1-3.8,3.36h0c.13.12-7.37,0-7.37,0l-2,12.13h20.45v17h10.13V168.61h8.09v16.64H140V168.48c17.11-1,29-5.27,30.54-21.32,1.21-12.93-4.85-18.69-14.54-21,5.89-3,9.59-8.29,8.71-17.09" />
        <path class="cls-3"
            d="M73.07,67.05a81.5,81.5,0,0,1,77.08-17.92l1.16.33c.58.17,1.15.35,1.72.54.82.26,1.64.54,2.44.83l.8.29c1.09.4,2.18.83,3.25,1.28l.13.06A92.11,92.11,0,0,1,183.16,67.1l4.46-4.82c-.6-.6-1.22-1.15-1.83-1.72A88.44,88.44,0,0,0,130.33,39c-1.09,0-2.18,0-3.27,0h-.23a92.29,92.29,0,0,0-19.67,2.4l-1.32.32-1.1.29a88.22,88.22,0,0,0-18.52,7.29A70.43,70.43,0,0,0,68.85,62.45Z" />
        <path class="cls-3"
            d="M67.42,72.66l-4.9-4.29c-33.24,34.84-28.4,91.53,0,118.55l5-3.91a81.62,81.62,0,0,1-.09-110.35Z" />
        <path class="cls-3"
            d="M195.65,70.54c-.77-.8-1.55-1.59-2.36-2.34L189,72.9c25.2,28.63,30.52,74.08.79,109.07l4.18,5.05a88.77,88.77,0,0,0,1.72-116.48Z" />
        <path class="cls-3"
            d="M183.48,188.66c-2.9,2.17-5.78,4.16-8.67,6a81.38,81.38,0,0,1-35.29,14.08,73.21,73.21,0,0,1-19.66.46,81.43,81.43,0,0,1-44.73-18.88c-.66-.48-1.31-.95-2-1.45L68.52,193c16.13,15.93,38.24,23.59,60,23.58.48,0,1,0,1.44,0h.23a88.42,88.42,0,0,0,55.09-21.13c.7-.66,1.41-1.31,2.08-2Z" />
        <path class="cls-1"
            d="M128,30.75A97.29,97.29,0,1,1,30.75,128,97.4,97.4,0,0,1,128,30.75m0-7A104.29,104.29,0,1,0,232.33,128,104.29,104.29,0,0,0,128,23.75Z" />
    </g>
</svg>