<svg width="16" height="12" viewBox="0 0 16 12" fill="none" xmlns="http://www.w3.org/2000/svg">
    <path
        d="M13.1243 8.92821C13.8941 10.2615 12.9319 11.9282 11.3923 11.9282L4.46408 11.9282C2.92448 11.9282 1.96223 10.2615 2.73203 8.9282L6.19613 2.9282C6.96593 1.59487 8.89043 1.59487 9.66023 2.9282L13.1243 8.92821Z"
        fill="#D9D9D9" />
    <path fill-rule="evenodd" clip-rule="evenodd"
        d="M7.99989 10C9.6458 10 11.074 9.02345 11.785 8.43512C12.0715 8.19807 12.0715 7.80195 11.785 7.56491C11.074 6.97657 9.6458 6 7.99989 6C6.35395 6 4.92579 6.97657 4.21475 7.56491C3.92825 7.80195 3.92825 8.19807 4.21475 8.43512C4.92579 9.02345 6.35395 10 7.99989 10ZM7.99989 9.39534C8.83122 9.39534 9.50516 8.77064 9.50516 7.99999C9.50516 7.22936 8.83122 6.60466 7.99989 6.60466C7.16855 6.60466 6.49461 7.22936 6.49461 7.99999C6.49461 8.77064 7.16855 9.39534 7.99989 9.39534Z"
        fill="#0C0A09" />
</svg>