<svg width="52" height="52" viewBox="0 0 52 52" fill="none" xmlns="http://www.w3.org/2000/svg">
<circle cx="26" cy="26" r="26" fill="#D9D9D9"/>
<g clip-path="url(#clip0_0_1)">
<mask id="mask0_0_1" style="mask-type:luminance" maskUnits="userSpaceOnUse" x="6" y="2" width="40" height="40">
<path d="M46 2H6V42H46V2Z" fill="white"/>
</mask>
<g mask="url(#mask0_0_1)">
<path d="M22.6939 7.67583C23.8938 5.5976 26.8935 5.59765 28.0934 7.67592L36.0902 21.5268L44.087 35.3783C45.2869 37.4566 43.787 40.0544 41.3872 40.0544H25.3937H9.39944C6.99966 40.0544 5.49977 37.4566 6.69963 35.3783L14.6965 21.5268L22.6939 7.67583Z" fill="white"/>
<path fill-rule="evenodd" clip-rule="evenodd" d="M31.5704 34.787C38.0528 34.787 43.6776 30.7242 46.4781 28.2765C47.6064 27.2903 47.6064 25.6423 46.4781 24.6561C43.6776 22.2084 38.0528 18.1455 31.5704 18.1455C25.0879 18.1455 19.4631 22.2084 16.6627 24.6561C15.5343 25.6423 15.5343 27.2903 16.6627 28.2765C19.4631 30.7242 25.0879 34.787 31.5704 34.787ZM31.5704 32.2714C34.8446 32.2714 37.4989 29.6724 37.4989 26.4662C37.4989 23.2601 34.8446 20.6611 31.5704 20.6611C28.2962 20.6611 25.6419 23.2601 25.6419 26.4662C25.6419 29.6724 28.2962 32.2714 31.5704 32.2714Z" fill="#0D0B0D"/>
</g>
</g>
<defs>
<clipPath id="clip0_0_1">
<rect width="40" height="40" fill="white" transform="translate(6 2)"/>
</clipPath>
</defs>
</svg>
