<svg width="16" height="16" viewBox="0 0 16 16" fill="none" xmlns="http://www.w3.org/2000/svg">
<circle cx="8" cy="8" r="7.95" stroke="white" stroke-opacity="0.01" stroke-width="0.1"/>
<path d="M7.15272 1.55113C7.52933 0.816279 8.47086 0.816293 8.84748 1.55116L11.3575 6.44875L13.8675 11.3466C14.2441 12.0814 13.7733 13 13.0201 13H8.00011H2.97994C2.22672 13 1.75594 12.0814 2.13254 11.3466L4.64254 6.44875L7.15272 1.55113Z" fill="white"/>
<path d="M11.7492 9.00914C11.3954 9.37503 10.8639 9.86089 10.2171 10.255C9.57014 10.6493 8.81068 10.95 8.00001 10.95C7.18932 10.95 6.42986 10.6493 5.78287 10.255C5.13607 9.86089 4.60458 9.37503 4.25082 9.00914C3.98306 8.73222 3.98306 8.26782 4.25082 7.99089L4.25082 7.99089C4.60458 7.625 5.13607 7.13913 5.78287 6.74498C6.42986 6.35073 7.18932 6.05 8.00001 6.05C8.81068 6.05 9.57014 6.35073 10.2171 6.74498C10.8639 7.13913 11.3954 7.625 11.7492 7.99089C12.0169 8.26781 12.0169 8.73222 11.7492 9.00914ZM8.00001 10.2942C8.86561 10.2942 9.55528 9.48375 9.55528 8.49999C9.55528 7.51625 8.86561 6.70582 8.00001 6.70582C7.1344 6.70582 6.44473 7.51625 6.44473 8.49999C6.44473 9.48375 7.1344 10.2942 8.00001 10.2942Z" fill="#0C0A09" stroke="white" stroke-width="0.1"/>
</svg>
