<svg width="16" height="16" viewBox="0 0 16 16" fill="none" xmlns="http://www.w3.org/2000/svg">
    <circle cx="8" cy="8" r="7.95" stroke="white" stroke-opacity="0.01" stroke-width="0.1" />
    <path
        d="M7.15272 1.55113C7.52933 0.816279 8.47086 0.816293 8.84748 1.55116L11.3575 6.44875L13.8675 11.3466C14.2441 12.0814 13.7733 13 13.0201 13H8.00011H2.97994C2.22672 13 1.75594 12.0814 2.13254 11.3466L4.64254 6.44875L7.15272 1.55113Z"
        fill="white" />
    <path
        d="M13.6458 7.61415C12.5814 8.49484 10.4508 9.95 8.00001 9.95C5.54923 9.95 3.41854 8.49484 2.35419 7.61415L2.32399 7.65065L2.35419 7.61415C1.9486 7.27858 1.9486 6.72146 2.35419 6.38588L2.32378 6.34914L2.35419 6.38588C3.41854 5.5052 5.54923 4.05 8.00001 4.05C10.4508 4.05 12.5814 5.5052 13.6458 6.38588C14.0514 6.72146 14.0514 7.27858 13.6458 7.61415ZM8.00001 9.14301C9.27099 9.14301 10.3079 8.18708 10.3079 6.99998C10.3079 5.81292 9.27099 4.85699 8.00001 4.85699C6.72904 4.85699 5.6921 5.81292 5.6921 6.99998C5.6921 8.18708 6.72903 9.14301 8.00001 9.14301Z"
        fill="#0C0A09" stroke="white" stroke-width="0.1" />
</svg>