<svg width="50" height="50" viewBox="0 0 50 50" fill="none" xmlns="http://www.w3.org/2000/svg">
<path fill-rule="evenodd" clip-rule="evenodd" d="M31.293 34.1541C34.5673 34.1541 37.2215 31.5551 37.2215 28.3489C37.2215 25.1428 34.5673 22.5438 31.293 22.5438C28.0188 22.5438 25.3646 25.1428 25.3646 28.3489C25.3646 31.5551 28.0188 34.1541 31.293 34.1541Z" fill="#0D0B0D"/>
<path fill-rule="evenodd" clip-rule="evenodd" d="M27.816 9.55873C26.6161 7.48046 23.6164 7.48042 22.4165 9.55865L6.42228 37.2611C5.22242 39.3394 6.72231 41.9372 9.1221 41.9372H41.1098C43.5096 41.9372 45.0095 39.3394 43.8097 37.2611L41.6382 33.5C38.7876 35.2042 35.1922 36.6697 31.293 36.6697C24.8106 36.6697 19.1858 32.6069 16.3853 30.1592C15.257 29.1729 15.257 27.525 16.3853 26.5388C19.1858 24.0911 24.8106 20.0282 31.293 20.0282C32.2123 20.0282 33.1193 20.1202 33.9985 20.2674L27.816 9.55873ZM31.293 34.1541C34.5673 34.1541 37.2215 31.5551 37.2215 28.3489C37.2215 25.1428 34.5673 22.5438 31.293 22.5438C28.0188 22.5438 25.3646 25.1428 25.3646 28.3489C25.3646 31.5551 28.0188 34.1541 31.293 34.1541Z" fill="white"/>
<path fill-rule="evenodd" clip-rule="evenodd" d="M41.6382 33.5L33.9985 20.2674C33.1193 20.1202 32.2123 20.0282 31.293 20.0282C24.8106 20.0282 19.1858 24.0911 16.3853 26.5388C15.257 27.525 15.257 29.1729 16.3853 30.1592C19.1858 32.6069 24.8106 36.6697 31.293 36.6697C35.1922 36.6697 38.7876 35.2042 41.6382 33.5ZM37.2215 28.3489C37.2215 31.5551 34.5673 34.1541 31.293 34.1541C28.0188 34.1541 25.3646 31.5551 25.3646 28.3489C25.3646 25.1428 28.0188 22.5438 31.293 22.5438C34.5673 22.5438 37.2215 25.1428 37.2215 28.3489Z" fill="#0D0B0D"/>
<g style="mix-blend-mode:darken">
<circle cx="25" cy="25" r="25"/>
</g>
</svg>
