<svg width="38" height="38" viewBox="0 0 38 38" fill="none" xmlns="http://www.w3.org/2000/svg">
<path fill-rule="evenodd" clip-rule="evenodd" d="M31.1168 33.6357L4.36432 6.88323C1.63849 10.172 0 14.3947 0 19C0 29.4934 8.5066 38 19 38C23.6053 38 27.828 36.3615 31.1168 33.6357ZM33.6358 31.1166C23.1884 20.6691 6.88341 4.36418 6.88341 4.36418C10.1722 1.63843 14.3948 0 19 0C29.4934 0 38 8.50659 38 19C38 23.6052 36.3616 27.8278 33.6358 31.1166Z" fill="white"/>
<path d="M6.88341 4.36418C5.96728 5.12346 5.12362 5.96712 4.36432 6.88323L31.1168 33.6357C32.0329 32.8764 32.8765 32.0327 33.6358 31.1166L6.88341 4.36418Z" fill="black"/>
</svg>
