<svg width="16" height="16" viewBox="0 0 16 16" fill="none" xmlns="http://www.w3.org/2000/svg">
<circle cx="8" cy="8" r="7.995" stroke="black" stroke-opacity="0.01" stroke-width="0.01"/>
<path d="M11.4639 4.00023C13.0035 4.00023 13.9658 5.66689 13.196 7.00023L9.73189 13.0002C8.96209 14.3336 7.03759 14.3336 6.26779 13.0002L2.80368 7.00022C2.03388 5.66689 2.99613 4.00023 4.53573 4.00023L11.4639 4.00023Z" fill="#D9D9D9"/>
<path fill-rule="evenodd" clip-rule="evenodd" d="M8.00001 10C9.64592 10 11.0741 9.02345 11.7851 8.43512C12.0716 8.19807 12.0716 7.80195 11.7851 7.56491C11.0741 6.97657 9.64592 6 8.00001 6C6.35407 6 4.92591 6.97657 4.21488 7.56491C3.92837 7.80195 3.92837 8.19807 4.21488 8.43512C4.92591 9.02345 6.35407 10 8.00001 10ZM8.00001 9.39534C8.83134 9.39534 9.50528 8.77064 9.50528 7.99999C9.50528 7.22936 8.83134 6.60466 8.00001 6.60466C7.16867 6.60466 6.49473 7.22936 6.49473 7.99999C6.49473 8.77064 7.16867 9.39534 8.00001 9.39534Z" fill="#0C0A09"/>
</svg>
