<svg width="16" height="16" viewBox="0 0 16 16" fill="none" xmlns="http://www.w3.org/2000/svg">
<path d="M8.84728 14.4489C8.47067 15.1837 7.52914 15.1837 7.15252 14.4488L4.64254 9.55125L2.13255 4.65344C1.75593 3.91857 2.22671 3 2.97995 3H7.99989L13.0201 3C13.7733 3 14.2441 3.91857 13.8675 4.65344L11.3575 9.55125L8.84728 14.4489Z" fill="white"/>
<path d="M11.7492 8.00914C11.3954 8.37503 10.8639 8.86089 10.2171 9.25503C9.57014 9.64928 8.81068 9.95 8.00001 9.95C7.18932 9.95 6.42986 9.64928 5.78287 9.25503C5.13607 8.86089 4.60458 8.37503 4.25082 8.00914C3.98306 7.73222 3.98306 7.26782 4.25082 6.99089L4.25082 6.99089C4.60458 6.625 5.13607 6.13913 5.78287 5.74498C6.42986 5.35073 7.18932 5.05 8.00001 5.05C8.81068 5.05 9.57014 5.35073 10.2171 5.74498C10.8639 6.13913 11.3954 6.625 11.7492 6.99089C12.0169 7.26781 12.0169 7.73222 11.7492 8.00914ZM8.00001 9.29418C8.86561 9.29418 9.55528 8.48375 9.55528 7.49999C9.55528 6.51625 8.86561 5.70582 8.00001 5.70582C7.1344 5.70582 6.44473 6.51625 6.44473 7.49999C6.44473 8.48375 7.1344 9.29418 8.00001 9.29418Z" fill="#0C0A09" stroke="white" stroke-width="0.1"/>
<circle cx="8" cy="8" r="7.995" stroke="black" stroke-opacity="0.01" stroke-width="0.01"/>
</svg>
