<svg width="400" height="400" viewBox="0 0 400 400" fill="none" xmlns="http://www.w3.org/2000/svg">
<circle cx="200" cy="200" r="200" fill="#D9D9D9"/>
<g clip-path="url(#clip0_0_1)">
<path d="M251.962 358C228.868 398 171.132 398 148.038 358L35.4552 163C12.3612 123 41.2287 73 87.4167 73H312.583C358.771 73 387.639 123 364.545 163L251.962 358Z" fill="white"/>
<path fill-rule="evenodd" clip-rule="evenodd" d="M200.382 266.336C250.328 266.336 293.667 232.807 315.243 212.607C323.937 204.469 323.937 190.868 315.243 182.73C293.667 162.529 250.328 129 200.382 129C150.436 129 107.098 162.529 85.5202 182.73C76.8266 190.868 76.8266 204.469 85.5202 212.607C107.098 232.807 150.436 266.336 200.382 266.336ZM200.382 245.576C225.61 245.576 246.06 224.128 246.06 197.668C246.06 171.209 225.61 149.76 200.382 149.76C175.155 149.76 154.704 171.209 154.704 197.668C154.704 224.128 175.155 245.576 200.382 245.576Z" fill="black"/>
</g>
<defs>
<clipPath id="clip0_0_1">
<rect width="346" height="315" fill="white" transform="translate(27 73)"/>
</clipPath>
</defs>
</svg>
