<svg width="16" height="16" viewBox="0 0 16 16" fill="none" xmlns="http://www.w3.org/2000/svg">
    <path
        d="M8.84728 14.4489C8.47067 15.1837 7.52914 15.1837 7.15252 14.4488L4.64254 9.55125L2.13255 4.65344C1.75593 3.91857 2.22671 3 2.97995 3H7.99989L13.0201 3C13.7733 3 14.2441 3.91857 13.8675 4.65344L11.3575 9.55125L8.84728 14.4489Z"
        fill="white" />
    <path
        d="M13.6458 8.61415C12.5814 9.49484 10.4508 10.95 8.00001 10.95C5.54923 10.95 3.41854 9.49484 2.35419 8.61415L2.32399 8.65065L2.35419 8.61415C1.9486 8.27858 1.9486 7.72146 2.35419 7.38588L2.32378 7.34914L2.35419 7.38588C3.41854 6.5052 5.54923 5.05 8.00001 5.05C10.4508 5.05 12.5814 6.5052 13.6458 7.38588C14.0514 7.72146 14.0514 8.27858 13.6458 8.61415ZM8.00001 10.143C9.27099 10.143 10.3079 9.18708 10.3079 7.99998C10.3079 6.81292 9.27099 5.85699 8.00001 5.85699C6.72904 5.85699 5.6921 6.81292 5.6921 7.99998C5.6921 9.18708 6.72903 10.143 8.00001 10.143Z"
        fill="#0C0A09" stroke="white" stroke-width="0.1" />
    <circle cx="8" cy="8" r="7.995" stroke="black" stroke-opacity="0.01" stroke-width="0.01" />
</svg>