<svg width="52" height="52" viewBox="0 0 52 52" fill="none" xmlns="http://www.w3.org/2000/svg">
    <circle cx="26" cy="26" r="26" fill="white" />
    <path
        d="M28.8243 45.2893C27.5689 47.4902 24.4304 47.4901 23.1751 45.2892L14.8084 30.6209L6.44181 15.9519C5.18642 13.751 6.75568 10.9998 9.26647 10.9998H25.9996L42.7335 10.9998C45.2443 10.9998 46.8135 13.751 45.5582 15.9519L37.1915 30.6209L28.8243 45.2893Z"
        fill="#0C0A09" />
    <path fill-rule="evenodd" clip-rule="evenodd"
        d="M26 30C32.1722 30 37.5278 25.8497 40.1943 23.3492C41.2686 22.3418 41.2686 20.6583 40.1943 19.6509C37.5278 17.1504 32.1722 13 26 13C19.8278 13 14.4722 17.1504 11.8058 19.6509C10.7314 20.6583 10.7314 22.3418 11.8058 23.3492C14.4722 25.8497 19.8278 30 26 30ZM26 27.4302C29.1175 27.4302 31.6448 24.7752 31.6448 21.4999C31.6448 18.2248 29.1175 15.5698 26 15.5698C22.8825 15.5698 20.3553 18.2248 20.3553 21.4999C20.3553 24.7752 22.8825 27.4302 26 27.4302Z"
        fill="white" />
</svg>