<svg width="346" height="315" viewBox="0 0 346 315" fill="none" xmlns="http://www.w3.org/2000/svg">
<path d="M224.962 285C201.868 325 144.132 325 121.038 285L8.45516 90C-14.6388 50 14.2287 0 60.4167 0L285.583 0C331.771 0 360.639 50 337.545 90L224.962 285Z" fill="white"/>
<path fill-rule="evenodd" clip-rule="evenodd" d="M173.382 193.336C223.328 193.336 266.667 159.807 288.243 139.607C296.937 131.469 296.937 117.868 288.243 109.73C266.667 89.5292 223.328 56 173.382 56C123.436 56 80.0976 89.5292 58.5202 109.73C49.8266 117.868 49.8266 131.469 58.5202 139.607C80.0976 159.807 123.436 193.336 173.382 193.336ZM173.382 172.576C198.61 172.576 219.06 151.128 219.06 124.668C219.06 98.2094 198.61 76.7603 173.382 76.7603C148.155 76.7603 127.704 98.2094 127.704 124.668C127.704 151.128 148.155 172.576 173.382 172.576Z" fill="black"/>
</svg>
