<svg width="40" height="40" viewBox="0 0 40 40" fill="none" xmlns="http://www.w3.org/2000/svg">
<rect width="40" height="40" rx="5.49639" fill="none"/>
<path fill-rule="evenodd" clip-rule="evenodd" d="M20.0531 28.6635C26.827 28.6635 32.7047 24.418 35.631 21.8602C36.8101 20.8297 36.8101 19.1076 35.631 18.0771C32.7047 15.5193 26.827 11.2738 20.0531 11.2738C13.2792 11.2738 7.40157 15.5193 4.47518 18.0771C3.29611 19.1076 3.29612 20.8297 4.47518 21.8602C7.40157 24.418 13.2792 28.6635 20.0531 28.6635ZM20.0531 26.0348C23.4746 26.0348 26.2482 23.3189 26.2482 19.9686C26.2482 16.6184 23.4746 13.9025 20.0531 13.9025C16.6317 13.9025 13.8581 16.6184 13.8581 19.9686C13.8581 23.3189 16.6317 26.0348 20.0531 26.0348Z" fill="#3f3f3f"/>
<circle cx="19.9949" cy="19.9957" r="6.29969" fill="black"/>
</svg>
